<?xml version="1.0" standalone="no"?>
<!--Created with Sketsa SVG Editor (http://www.kiyut.com)-->
<svg contentScriptType="text/ecmascript" width="600.0px" xmlns:xlink="http://www.w3.org/1999/xlink" baseProfile="full"
    zoomAndPan="magnify" contentStyleType="text/css" height="150.0px" preserveAspectRatio="xMidYMid meet" xmlns="http://www.w3.org/2000/svg"
    version="1.0" fill="rgba(52,167,144,0.3)">
    <path d="m 232.7 58.30336 c -4.968 -0.338 -13.338 -0.838 -18.6 -1.11 c -18.736 -0.97 -30.32 -1.677 -31.887 -1.946 c 
        -0.875 -0.15 -4.34 -0.46 -7.7 -0.689 s -6.945 -0.593 -7.964 -0.808 s -3.407 -0.503 -5.306 -0.64 c -6.265 -0.452 
        -12.021 -1.324 -16.58 -2.51 c -1.768 -0.46 -3.452 -0.698 -3.744 -0.528 c -0.291 0.17 -0.367 0.06 -0.168 -0.244 c 
        0.245 -0.374 -1.524 -0.622 -5.476 -0.766 c -3.21 -0.117 -6.191 -0.36 -6.624 -0.538 s -0.922 -1.163 -1.088 -2.187 
        c -0.341 -2.116 -0.9 -2.442 -5.98 -3.483 c -1.892 -0.388 -4.866 -1.206 -6.606 -1.818 c -1.741 -0.612 -3.794 
        -1.25 -4.563 -1.417 c -2.194 -0.479 -2.155 -1.655 0.129 -3.891 c 2.401 -2.352 4.295 -3.332 8.148 -4.215 c 2.499 
        -0.573 5.918 -2.949 5.948 -4.133 c 0.01 -0.398 -2.28 -1.17 -5.541 -1.87 c -0.874 -0.188 -3.737 -0.528 -6.364 
        -0.757 c -2.626 -0.229 -6.12 -0.801 -7.762 -1.272 c -1.826 -0.523 -5.497 -0.92 -9.443 -1.02 c -7.009 -0.179 
        -10.006 -1.01 -10.448 -2.896 c -0.15 -0.639 -1.458 -1.65 -3.326 -2.571 c -1.694 -0.835 -2.951 -1.713 -2.795 
        -1.953 c 0.157 -0.239 -0.03 -0.334 -0.414 -0.21 c -1.726 0.553 -4.296 -0.668 -5.206 -2.473 c -0.991 -1.968 
        -0.524 -3.782 0.964 -3.745 c 0.429 0.011 0.786 -0.16 0.794 -0.379 s 1.63 -0.426 3.604 -0.46 c 1.975 -0.034 3.676 
        -0.29 3.78 -0.57 s 0.636 -0.495 1.18 -0.481 c 0.543 0.014 1.141 -0.21 1.33 -0.499 c 0.188 -0.288 0.581 -0.517 
        0.874 -0.51 s 0.41 0.2 0.261 0.428 s 0.43 0.423 1.288 0.433 c 0.921 0.011 1.567 -0.266 1.577 -0.678 c 0.01 
        -0.384 0.253 -0.544 0.541 -0.355 c 0.288 0.188 0.53 0.114 0.537 -0.164 c 0.02 -0.821 -1.364 -1.156 -3.813 -0.923 
        c -1.26 0.12 -3.36 -0.081 -4.669 -0.448 c -1.308 -0.366 -2.735 -0.745 -3.172 -0.841 c -0.436 -0.096 -1.212 
        -0.366 -1.722 -0.599 s -1.407 -0.311 -1.991 -0.174 c -1.36 0.318 -1.804 -0.417 -0.754 -1.245 c 0.445 -0.35 0.807 
        -0.428 0.805 -0.173 s 0.179 0.23 0.401 -0.058 c 0.684 -0.883 2.833 -1.846 2.818 -1.263 c -0.008 0.295 0.24 0.543 
        0.55 0.55 c 0.31 0.009 0.451 -0.177 0.314 -0.412 c -0.353 -0.606 3.918 -0.593 4.988 0.015 c 0.57 0.325 1.11 
        0.295 1.509 -0.084 c 0.716 -0.681 2.86 -0.907 2.435 -0.257 c -0.495 0.758 1.216 0.507 1.902 -0.28 c 0.49 -0.559 
        0.995 -0.614 1.969 -0.215 c 1.683 0.69 2.255 0.688 1.254 -0.002 c -0.587 -0.406 -0.318 -0.52 1.077 -0.452 c 
        1.023 0.05 3.662 -0.135 5.865 -0.41 c 2.203 -0.276 4.646 -0.517 5.429 -0.536 c 2.33 -0.058 1.705 -1.85 -1.403 
        -4.03 c -1.776 -1.246 -2.616 -2.173 -2.413 -2.663 c 0.198 -0.48 0.526 -0.573 0.902 -0.258 c 0.325 0.272 1.074 
        0.314 1.665 0.093 c 0.591 -0.22 1.968 -0.396 3.058 -0.388 c 1.536 0.01 2.2 -0.3 2.943 -1.373 c 1.207 -1.743 1.38 
        -2.73 0.715 -4.055 c -0.29 -0.575 -0.31 -0.904 -0.045 -0.731 c 0.264 0.172 0.82 -0.563 1.234 -1.635 c 0.414 
        -1.071 1.024 -2.117 1.353 -2.324 c 0.33 -0.207 -0.357 -0.407 -1.527 -0.446 c -1.571 -0.052 -1.915 -0.2 -1.316 
        -0.566 c 0.615 -0.376 0.391 -0.508 -0.925 -0.548 c -0.955 -0.028 -2.146 -0.28 -2.647 -0.557 c -0.501 -0.278 
        -3.11 -1.446 -5.798 -2.596 c -5.39 -2.307 -8.525 -2.882 -19.984 -3.662 c -8.781 -0.598 -9.768 -0.731 -11.144 
        -1.51 c -1.4 -0.794 -8.642 -2.077 -13.242 -2.347 c -2.41 -0.142 -4.554 -0.628 -6.089 -1.38 c -1.303 -0.639 -3.56 
        -1.353 -5.016 -1.587 c -2.896 -0.466 -6.602 -1.885 -6.586 -2.521 c 0.006 -0.22 1.398 -0.818 3.094 -1.327 c 2.607 
        -0.783 4.814 -0.888 14.256 -0.68 c 7.542 0.166 11.835 0.043 13.215 -0.38 c 1.992 -0.611 3.9 -0.47 8.765 0.647 c 
        1.254 0.289 4.82 0.633 7.925 0.765 s 6.1 0.5 6.658 0.816 c 0.595 0.339 1.815 0.43 2.961 0.221 c 1.072 -0.195 
        2.16 -0.298 2.416 -0.23 c 0.95 0.255 17.146 0.501 18.95 0.289 c 3.06 -0.36 6.9 -0.58 12.19 -0.7 c 2.744 -0.06 
        5.254 -0.364 5.58 -0.672 c 0.577 -0.549 -0.398 -0.853 -2.149 -0.671 c -0.366 0.038 -0.66 -0.206 -0.651 -0.543 c 
        0.009 -0.336 -0.33 -0.49 -0.75 -0.34 c -0.422 0.15 -1.054 -0.092 -1.404 -0.536 c -0.511 -0.65 -0.726 -0.675 
        -1.092 -0.13 c -0.371 0.554 -0.453 0.55 -0.446 -0.021 c 0.006 -0.443 -0.361 -0.594 -0.999 -0.41 c -0.672 0.195 
        -1.12 -0.023 -1.344 -0.653 c -0.185 -0.52 -0.076 -1.025 0.24 -1.122 c 0.821 -0.25 2.192 -1.621 2.207 -2.206 c 
        0.02 -0.816 -2.06 -2.739 -2.613 -2.416 c -0.283 0.165 -0.37 -0.05 -0.192 -0.479 c 0.244 -0.592 0.033 -0.711 
        -0.882 -0.496 c -0.956 0.224 -1.13 0.105 -0.85 -0.576 c 0.525 -1.27 -0.592 -1.71 -1.505 -0.594 c -0.5 0.612 
        -0.683 0.676 -0.5 0.174 c 0.321 -0.884 -2.13 -2.372 -3.037 -1.843 c -0.312 0.182 -0.378 0.06 -0.153 -0.285 c 
        0.218 -0.332 0.142 -0.61 -0.168 -0.619 c -0.31 -0.008 -0.572 0.345 -0.584 0.784 c -0.028 1.126 -1.08 0.971 
        -1.097 -0.161 c -0.012 -0.792 -0.083 -0.773 -0.47 0.12 c -0.25 0.58 -0.384 1.185 -0.299 1.346 s -0.308 0.316 
        -0.874 0.344 c -1.244 0.062 -1.306 -0.36 -0.168 -1.148 c 0.66 -0.458 0.192 -0.566 -2.158 -0.497 c -1.774 0.052 
        -2.872 -0.112 -2.682 -0.402 c 0.178 -0.272 -0.156 -0.379 -0.75 -0.24 c -0.624 0.147 -1.066 -0.01 -1.057 -0.373 c 
        0.01 -0.344 -0.268 -0.46 -0.616 -0.257 c -0.444 0.26 -0.503 0.069 -0.198 -0.639 c 0.238 -0.554 0.496 -1.332 
        0.573 -1.73 c 0.24 -1.234 1.603 -1.562 3.256 -0.781 c 0.867 0.41 1.278 0.757 0.911 0.771 c -1.307 0.052 -0.666 
        1.091 0.694 1.126 c 1.0 0.025 1.309 -0.184 1.107 -0.753 c -0.154 -0.434 -0.035 -0.931 0.263 -1.106 c 0.347 
        -0.202 0.302 -0.63 -0.126 -1.184 c -0.565 -0.734 -0.54 -0.816 0.17 -0.53 c 0.46 0.186 1.18 0.107 1.6 -0.176 c 
        0.603 -0.406 0.565 -0.455 -0.182 -0.235 c -0.796 0.234 -0.883 0.052 -0.553 -1.162 c 0.215 -0.792 0.588 -1.563 
        0.828 -1.714 c 0.783 -0.49 -0.038 -2.593 -0.894 -2.29 c -0.555 0.197 -0.734 -0.018 -0.595 -0.717 c 0.145 -0.73 
        -0.088 -0.974 -0.868 -0.908 c -0.587 0.05 -0.763 -0.035 -0.391 -0.189 s 0.556 -0.484 0.409 -0.736 s 0.223 -0.782 
        0.822 -1.179 c 0.598 -0.397 0.934 -0.883 0.746 -1.082 c -0.189 -0.198 0.116 -0.352 0.677 -0.342 c 0.837 0.015 
        0.882 -0.074 0.249 -0.498 c -0.506 -0.338 -0.909 -0.305 -1.171 0.096 c -0.22 0.337 -0.549 0.456 -0.73 0.265 c 
        -0.332 -0.35 0.712 -2.579 1.43 -3.054 c 0.588 -0.388 1.322 -2.81 0.752 -2.477 c -0.27 0.157 -0.758 -0.169 -1.086 
        -0.724 c -0.53 -0.9 -0.436 -0.995 0.848 -0.876 c 0.909 0.085 1.4 -0.112 1.326 -0.533 c -0.063 -0.368 0.063 
        -0.636 0.282 -0.596 c 1.092 0.202 1.732 -0.097 1.75 -0.816 c 0.011 -0.44 0.274 -0.792 0.584 -0.784 s 0.434 
        -0.208 0.275 -0.48 s 0.015 -0.608 0.387 -0.746 c 0.407 -0.153 0.306 -0.279 -0.255 -0.318 c -0.511 -0.036 -0.925 
        -0.25 -0.92 -0.474 c 0.007 -0.225 -0.827 -0.39 -1.85 -0.368 c -1.024 0.022 -1.724 -0.172 -1.555 -0.43 s -0.2 
        -0.482 -0.82 -0.498 s -0.972 -0.265 -0.784 -0.553 c 0.188 -0.287 0.063 -0.53 -0.278 -0.539 c -0.356 -0.009 
        -0.468 -0.383 -0.263 -0.88 c 0.299 -0.723 0.222 -0.758 -0.47 -0.213 c -0.678 0.534 -0.823 0.508 -0.806 -0.15 c 
        0.01 -0.44 0.502 -0.913 1.091 -1.052 c 0.645 -0.15 1.082 -0.698 1.1 -1.374 c 0.024 -0.947 -0.204 -1.081 -1.443 
        -0.852 c -1.206 0.224 -1.304 0.172 -0.542 -0.286 c 0.862 -0.52 0.849 -0.654 -0.181 -1.901 c -0.61 -0.739 -1.464 
        -1.352 -1.9 -1.363 c -1.6 -0.04 -0.154 -0.564 1.999 -0.723 c 1.296 -0.096 2.088 0.04 1.901 0.325 c -0.176 0.27 
        -0.08 0.495 0.212 0.503 c 0.293 0.007 0.66 -0.181 0.815 -0.42 c 0.155 -0.237 1.071 -0.367 2.035 -0.288 c 0.963 
        0.08 2.035 -0.066 2.381 -0.324 c 0.387 -0.287 0.758 -0.248 0.962 0.1 c 0.224 0.385 0.656 0.405 1.336 0.063 c 
        0.553 -0.278 1.561 -0.47 2.241 -0.429 c 1.888 0.118 8.42 -0.299 8.878 -0.565 c 0.356 -0.208 6.18 -0.8 7.963 
        -0.81 c 0.934 -0.005 0.896 -2.507 -0.049 -3.245 c -0.43 -0.336 -0.818 -1.276 -0.862 -2.089 c -0.05 -0.918 -0.33 
        -1.389 -0.74 -1.243 c -0.387 0.137 -0.539 -0.062 -0.366 -0.48 c 0.192 -0.465 -0.256 -0.848 -1.293 -1.104 c 
        -1.744 -0.43 -2.963 -1.622 -2.454 -2.401 c 0.184 -0.28 -0.142 -0.388 -0.746 -0.247 c -0.763 0.18 -1.065 -0.01 
        -1.048 -0.658 c 0.012 -0.5 -0.453 -1.047 -1.034 -1.215 c -1.18 -0.341 -1.354 -0.996 -0.41 -1.546 c 0.39 -0.228 
        0.473 -0.134 0.22 0.253 c -0.223 0.34 -0.206 0.588 0.036 0.553 c 1.14 -0.168 1.765 0.167 1.746 0.937 c -0.028 
        1.096 1.26 0.703 1.517 -0.463 c 0.109 -0.493 0.0 -0.867 -0.245 -0.83 c -1.473 0.218 -2.298 -0.219 -2.273 -1.204 
        c 0.015 -0.602 0.263 -0.94 0.551 -0.753 c 0.288 0.189 0.536 -0.15 0.552 -0.753 c 0.015 -0.602 0.361 -1.086 0.769 
        -1.076 c 0.407 0.01 0.893 -0.349 1.078 -0.798 c 0.186 -0.45 0.116 -0.688 -0.155 -0.53 s -0.589 -0.017 -0.706 
        -0.39 c -0.117 -0.372 -0.16 -0.257 -0.097 0.257 c 0.064 0.514 -0.1 0.93 -0.366 0.923 c -0.265 -0.007 -0.475 
        -0.298 -0.466 -0.646 c 0.01 -0.349 -0.334 -0.18 -0.762 0.376 c -0.572 0.741 -0.619 1.115 -0.176 1.404 c 0.346 
        0.227 0.135 0.348 -0.496 0.284 c -0.976 -0.099 -1.629 -1.508 -0.687 -1.484 c 0.207 0.005 0.538 -0.705 0.736 
        -1.578 c 0.286 -1.261 0.636 -1.581 1.703 -1.554 c 0.739 0.019 1.35 -0.205 1.357 -0.498 c 0.007 -0.292 0.492 
        -0.52 1.077 -0.504 c 1.127 0.028 1.41 0.81 0.49 1.348 c -0.984 0.574 -0.078 1.198 1.594 1.098 c 2.177 -0.13 2.71 
        -0.714 0.758 -0.83 c -1.52 -0.091 -1.525 -0.1 -0.21 -0.437 l 1.339 -0.345 l -1.18 -0.682 c -1.36 -0.785 -1.54 
        -1.717 -0.325 -1.686 c 0.456 0.011 0.675 0.256 0.487 0.544 s -0.089 0.53 0.22 0.538 c 0.31 0.008 0.576 -0.464 
        0.591 -1.05 c 0.017 -0.644 0.382 -1.054 0.927 -1.04 c 0.783 0.02 0.768 -0.08 -0.114 -0.762 c -0.809 -0.627 -1.07 
        -0.648 -1.296 -0.106 c -0.172 0.412 -0.671 0.53 -1.27 0.298 c -0.928 -0.359 -0.932 -0.435 -0.064 -1.26 c 0.508 
        -0.483 1.266 -0.87 1.684 -0.859 c 0.687 0.018 1.01 -0.62 0.867 -1.707 c -0.029 -0.22 0.32 -0.391 0.777 -0.38 c 
        0.456 0.012 0.697 -0.205 0.535 -0.482 c -0.382 -0.654 0.644 -1.249 1.354 -0.784 c 0.375 0.245 0.346 0.591 -0.093 
        1.093 c -0.461 0.528 -0.474 0.74 -0.045 0.75 c 0.624 0.016 0.81 -0.624 0.672 -2.318 c -0.107 -1.325 0.915 -1.881 
        3.358 -1.83 c 1.175 0.026 1.946 -0.199 1.877 -0.546 c -0.076 -0.377 1.033 -0.568 3.074 -0.53 c 1.756 0.033 3.498 
        -0.168 3.871 -0.446 c 0.374 -0.278 1.373 -0.348 2.22 -0.156 c 1.097 0.249 1.747 0.093 2.257 -0.541 c 0.395 -0.49 
        0.5 -0.716 0.234 -0.501 c -0.266 0.214 -1.133 -0.646 -1.928 -1.912 c -0.794 -1.266 -1.45 -2.086 -1.458 -1.82 c 
        -0.008 0.264 -0.483 0.035 -1.054 -0.51 c -0.572 -0.544 -1.026 -1.251 -1.009 -1.571 s 0.265 -0.157 0.55 0.362 s 
        0.913 0.955 1.396 0.967 c 0.65 0.017 0.726 -0.137 0.297 -0.59 c -0.32 -0.336 -0.439 -0.958 -0.264 -1.381 c 0.26 
        -0.63 0.397 -0.639 0.75 -0.05 c 0.318 0.531 0.437 0.44 0.45 -0.342 c 0.023 -1.331 -1.185 -3.075 -1.777 -2.566 c 
        -0.243 0.21 -0.26 0.081 -0.037 -0.284 s 0.625 -0.52 0.893 -0.345 s 0.493 0.08 0.5 -0.213 c 0.008 -0.293 -0.21 
        -0.68 -0.486 -0.86 c -0.673 -0.44 -0.005 -1.978 1.22 -2.813 c 0.546 -0.373 0.845 -0.93 0.665 -1.238 c -0.213 
        -0.366 0.11 -0.417 0.926 -0.146 c 1.024 0.338 1.135 0.284 0.607 -0.3 c -0.787 -0.87 -0.81 -2.478 -0.04 -2.713 c 
        0.528 -0.161 0.673 -1.078 0.508 -3.217 c -0.043 -0.556 -0.52 -0.948 -1.18 -0.97 c -0.636 -0.02 -0.86 -0.196 
        -0.527 -0.412 c 0.838 -0.543 1.38 -2.136 0.845 -2.485 c -0.25 -0.164 -0.57 0.0 -0.711 0.364 s -0.392 0.532 
        -0.559 0.373 c -0.166 -0.16 -0.082 -0.627 0.188 -1.039 c 0.413 -0.632 0.657 -0.59 1.56 0.27 c 1.047 0.997 1.073 
        0.997 1.14 0.009 c 0.037 -0.561 0.18 -0.713 0.319 -0.34 c 0.138 0.369 0.496 0.677 0.795 0.685 c 0.3 0.008 0.417 
        -0.346 0.261 -0.785 s -0.113 -0.76 0.095 -0.71 c 0.207 0.049 1.063 -0.174 1.9 -0.495 c 0.838 -0.32 1.74 -0.442 
        2.003 -0.27 c 0.264 0.173 0.487 0.047 0.495 -0.28 s 0.235 -0.452 0.503 -0.276 a 0.59 0.59 0.0 0 0 0.813 -0.18 c 
        0.18 -0.275 0.74 -0.487 1.247 -0.471 c 1.469 0.044 2.384 -0.226 4.837 -1.425 c 1.266 -0.62 2.634 -1.119 3.04 
        -1.108 c 0.405 0.01 0.841 -0.27 0.97 -0.624 c 0.248 -0.687 5.217 -0.896 5.2 -0.218 c -0.005 0.215 0.653 0.226 
        1.463 0.022 c 1.597 -0.4 4.979 -0.231 7.426 0.372 c 1.27 0.313 1.661 0.157 2.264 -0.903 c 0.4 -0.705 0.592 
        -1.515 0.426 -1.8 c -0.43 -0.736 -4.019 -1.33 -9.882 -1.635 c -2.777 -0.145 -5.57 -0.565 -6.208 -0.933 s -1.35 
        -0.643 -1.582 -0.61 c -0.232 0.032 -1.29 0.008 -2.353 -0.054 c -1.454 -0.084 -1.993 -0.377 -2.182 -1.183 c 
        -0.204 -0.87 0.014 -1.067 1.162 -1.052 c 1.35 0.019 1.369 -0.016 0.413 -0.778 c -0.895 -0.714 -0.486 -0.772 3.87 
        -0.55 c 2.68 0.136 4.869 0.395 4.866 0.574 s 0.654 0.266 1.461 0.192 c 3.613 -0.328 9.12 -0.642 11.156 -0.636 c 
        1.224 0.004 2.113 -0.186 1.976 -0.42 c -0.137 -0.235 0.184 -0.452 0.715 -0.482 c 2.097 -0.118 2.6 -0.203 3.529 
        -0.595 c 0.53 -0.224 1.446 -1.294 2.034 -2.378 c 1.085 -2.0 2.825 -3.135 3.154 -2.057 c 0.126 0.412 0.422 0.4 
        0.984 -0.043 c 0.509 -0.401 0.93 -0.438 1.148 -0.1 c 0.364 0.562 8.947 0.785 9.513 0.248 c 0.181 -0.173 0.607 
        -0.073 0.945 0.223 c 0.652 0.57 3.864 0.563 4.848 -0.011 c 0.322 -0.188 1.406 -0.093 2.408 0.212 c 1.003 0.304 
        6.238 0.787 11.633 1.073 s 12.918 0.718 16.718 0.96 c 20.478 1.302 26.732 1.598 39.473 1.868 c 10.01 0.212 13.96 
        0.465 13.95 0.893 c -0.011 0.432 0.181 0.443 0.696 0.037 c 0.718 -0.566 3.924 -0.634 13.149 -0.28 c 2.778 0.106 
        5.291 0.179 5.584 0.162 c 0.294 -0.017 3.172 -0.192 6.398 -0.39 c 3.225 -0.197 6.26 -0.224 6.743 -0.06 c 0.483 
        0.163 1.01 0.097 1.17 -0.147 c 0.16 -0.245 2.28 -0.447 4.713 -0.45 c 2.433 -0.001 5.798 -0.21 7.479 -0.463 c 
        1.68 -0.253 6.117 -0.49 9.86 -0.525 s 8.483 -0.113 10.533 -0.171 c 2.051 -0.06 4.17 0.135 4.711 0.431 c 0.54 
        0.296 0.855 0.32 0.7 0.054 c -0.161 -0.275 1.949 -0.409 4.866 -0.308 c 2.833 0.097 5.995 -0.088 7.027 -0.412 c 
        1.418 -0.444 1.97 -0.435 2.253 0.037 c 0.257 0.428 0.384 0.44 0.4 0.04 c 0.013 -0.36 1.506 -0.594 3.882 -0.607 c 
        5.279 -0.029 21.347 0.325 24.604 0.542 c 1.46 0.098 4.814 0.083 7.452 -0.031 c 6.364 -0.278 16.24 -0.188 16.23 
        0.147 c -0.01 0.414 2.547 0.29 6.818 -0.33 c 2.143 -0.31 4.54 -0.378 5.327 -0.15 c 1.842 0.535 5.414 0.758 5.424 
        0.34 c 0.004 -0.178 0.666 -0.305 1.471 -0.284 c 14.88 0.394 42.965 0.11 43.913 -0.442 c 0.229 -0.134 0.41 -0.03 
        0.404 0.228 c -0.007 0.26 0.706 0.385 1.583 0.279 s 2.013 -0.005 2.523 0.225 c 1.173 0.528 3.297 0.744 3.043 
        0.308 c -0.106 -0.18 3.925 -0.173 8.956 0.016 c 5.031 0.19 9.147 0.386 9.145 0.436 c 0.0 0.05 1.493 0.177 3.32 
        0.28 c 1.827 0.105 3.326 0.037 3.33 -0.152 c 0.006 -0.189 0.844 -0.132 1.863 0.125 c 1.02 0.257 1.962 0.302 
        2.095 0.1 c 0.132 -0.202 2.409 -0.3 5.059 -0.215 c 2.873 0.091 4.827 -0.062 4.84 -0.379 c 0.013 -0.313 0.176 
        -0.29 0.398 0.057 c 0.466 0.73 4.486 0.795 5.038 0.082 c 0.27 -0.348 0.402 -0.345 0.399 0.01 c 0.0 0.293 0.892 
        0.527 1.99 0.52 c 1.099 -0.005 2.546 0.211 3.217 0.482 c 0.73 0.295 1.618 0.292 2.212 -0.006 c 0.955 -0.48 3.189 
        -0.628 14.678 -0.971 a 375.93 375.93 0.0 0 0 10.658 -0.503 c 2.932 -0.188 9.521 -0.267 14.642 -0.174 c 5.12 
        0.092 10.272 0.013 11.448 -0.177 s 7.644 -0.25 14.375 -0.132 c 15.806 0.275 27.702 0.147 32.44 -0.348 l 9.91 
        -1.037 c 3.376 -0.353 9.017 -0.845 12.536 -1.092 a 858.41 858.41 0.0 0 0 8.8 -0.656 c 4.325 -0.37 8.725 -0.159 
        12.283 0.59 c 2.243 0.472 9.064 0.873 19.026 1.118 c 8.541 0.21 15.695 0.487 15.897 0.614 s 9.22 0.612 20.04 
        1.079 c 10.819 0.467 21.584 1.01 23.92 1.207 c 13.122 1.108 23.083 1.564 44.925 2.057 c 3.072 0.07 6.421 0.222 
        7.443 0.34 c 2.21 0.256 12.437 0.978 22.05 1.559 c 20.774 1.255 28.525 1.659 42.524 2.217 c 8.482 0.338 16.255 
        0.766 17.275 0.95 s 3.767 0.472 6.105 0.64 c 4.326 0.308 9.265 1.018 9.902 1.422 c 0.194 0.124 1.983 0.39 3.977 
        0.594 c 1.994 0.203 5.055 0.634 6.804 0.957 c 1.748 0.323 3.894 0.704 4.768 0.846 c 0.875 0.143 3.533 0.813 
        5.906 1.49 c 2.374 0.677 4.814 1.244 5.424 1.26 c 0.61 0.015 1.103 0.227 1.097 0.471 s 0.288 0.454 0.653 0.466 c 
        3.592 0.124 12.176 1.161 13.523 1.634 c 0.938 0.33 2.193 1.322 2.79 2.207 c 1.177 1.746 4.364 3.535 7.304 4.1 c 
        3.678 0.706 10.045 1.461 11.38 1.35 c 0.75 -0.064 1.356 0.143 1.348 0.458 c -0.01 0.316 0.152 0.416 0.354 0.224 
        c 0.203 -0.193 0.856 0.131 1.451 0.72 c 0.596 0.588 2.678 1.954 4.629 3.034 c 2.841 1.575 4.295 2.027 7.315 
        2.275 c 3.988 0.328 4.693 0.802 4.246 2.854 c -0.284 1.309 -2.428 2.332 -4.76 2.273 c -0.67 -0.017 -1.373 0.204 
        -1.561 0.492 s -1.154 0.503 -2.146 0.478 c -2.802 -0.072 -7.205 0.9 -7.208 1.59 c 0.0 1.135 4.02 2.624 7.98 
        2.953 c 2.144 0.179 7.127 0.548 11.072 0.822 c 7.968 0.552 8.802 0.718 9.197 1.83 c 0.582 1.64 -6.865 6.976 
        -12.932 9.267 c -1.958 0.74 -2.952 1.496 -3.635 2.766 c -1.173 2.18 -0.663 3.245 2.493 5.212 c 1.225 0.763 2.217 
        1.754 2.206 2.201 c -0.01 0.448 0.33 1.182 0.757 1.632 c 1.213 1.276 0.882 2.556 -0.92 3.56 c -0.908 0.505 
        -2.702 1.863 -3.987 3.016 c -1.956 1.756 -2.761 2.119 -4.95 2.227 c -1.925 0.095 -2.855 0.433 -3.532 1.283 c 
        -0.506 0.634 -0.809 1.343 -0.674 1.574 s 0.0 0.414 -0.3 0.406 c -0.299 -0.008 -0.838 0.518 -1.197 1.167 c -0.36 
        0.65 -0.469 1.018 -0.243 0.818 c 0.563 -0.498 1.993 1.084 1.568 1.734 c -0.198 0.303 0.065 0.42 0.624 0.278 c 
        0.531 -0.135 0.0 0.207 -1.189 0.76 c -1.185 0.552 -2.917 0.991 -3.849 0.975 s -2.314 0.189 -3.072 0.455 c -1.013 
        0.356 -1.378 0.311 -1.377 -0.168 c 0.0 -0.359 -0.25 -0.249 -0.554 0.245 c -1.047 1.695 -0.086 3.579 2.546 4.998 
        c 1.364 0.736 2.839 1.916 3.276 2.622 s 1.73 1.59 2.874 1.964 c 4.26 1.396 4.855 4.17 1.104 5.143 c -2.332 0.605 
        -3.48 2.297 -2.825 4.161 c 0.34 0.97 0.322 1.411 -0.06 1.401 c -0.983 -0.025 -1.956 1.277 -1.933 2.586 c 0.023 
        1.295 -0.019 1.316 -4.526 2.237 c -0.736 0.15 -2.072 0.883 -2.97 1.627 c -0.896 0.744 -2.297 1.679 -3.113 2.077 
        c -0.815 0.398 -1.49 1.069 -1.501 1.49 c -0.025 0.988 -1.957 1.961 -4.258 2.146 c -2.515 0.202 -3.554 0.83 
        -3.696 2.233 c -0.118 1.17 1.925 3.722 3.001 3.75 c 0.658 0.017 3.6 3.15 3.584 3.817 c -0.023 0.91 -1.956 1.486 
        -5.676 1.691 c -2.028 0.112 -4.89 0.428 -6.361 0.701 c -2.436 0.454 -11.127 1.706 -13.108 1.89 c -0.828 0.076 
        -1.238 1.965 -0.43 1.986 c 0.24 0.006 0.185 0.452 -0.122 0.991 c -0.306 0.54 -0.394 1.152 -0.195 1.362 c 0.667 
        0.701 0.254 7.453 -0.502 8.202 c -0.395 0.39 -1.82 0.757 -3.168 0.813 c -2.175 0.091 -3.631 0.89 -3.155 1.731 c 
        0.093 0.163 -0.174 0.596 -0.591 0.963 c -0.418 0.367 -0.755 0.49 -0.75 0.274 s -0.279 -0.12 -0.632 0.216 c 
        -0.468 0.445 -0.827 0.447 -1.33 0.008 c -0.503 -0.44 -1.124 -0.434 -2.302 0.019 c -2.715 1.044 -1.872 2.668 
        1.776 3.42 c 4.08 0.843 4.987 1.226 4.346 1.835 c -0.174 0.165 -3.96 0.285 -8.415 0.266 c -9.473 -0.041 -10.567 
        0.365 -11.438 4.25 c -0.282 1.256 -1.103 3.167 -1.824 4.248 c -1.19 1.784 -2.133 4.113 -2.22 5.488 c -0.02 0.293 
        -0.841 0.588 -1.827 0.657 c -1.23 0.087 -1.885 0.444 -2.086 1.139 c -0.16 0.557 -0.501 0.876 -0.757 0.71 c 
        -0.255 -0.168 -0.47 -0.06 -0.477 0.237 s -1.113 1.148 -2.456 1.89 c -3.81 2.104 -4.378 3.885 -1.601 5.022 c 
        1.298 0.532 1.351 0.934 0.416 3.162 c -0.686 1.634 1.038 2.734 6.739 4.3 c 5.518 1.516 7.055 2.514 5.439 3.532 c 
        -1.004 0.632 -8.212 -0.172 -19.547 -2.181 c -5.135 -0.91 -7.305 -0.55 -8.497 1.41 c -1.189 1.953 -2.415 2.51 
        -5.952 2.699 c -2.932 0.157 -5.691 1.537 -5.725 2.864 c -0.021 0.814 2.322 1.642 5.036 1.78 c 2.041 0.105 4.436 
        1.568 3.242 1.98 c -0.375 0.13 -1.045 0.581 -1.49 1.004 c -0.444 0.423 -0.804 0.625 -0.8 0.45 c 0.017 -0.643 
        -3.26 1.293 -3.924 2.319 c -0.827 1.278 -3.625 2.997 -4.728 2.905 c -2.74 -0.23 -6.385 0.037 -6.396 0.469 c 
        -0.022 0.824 2.724 3.257 3.298 2.922 c 0.289 -0.169 0.358 -0.05 0.154 0.262 c -0.205 0.312 -0.128 0.727 0.169 
        0.921 c 0.297 0.195 0.39 0.583 0.207 0.864 c -0.184 0.28 -0.045 0.877 0.308 1.324 c 1.002 1.273 -0.02 1.756 
        -4.088 1.933 c -2.047 0.089 -4.805 0.37 -6.129 0.626 s -5.771 0.896 -9.883 1.423 s -8.82 1.38 -10.463 1.897 c 
        -1.68 0.528 -4.43 0.902 -6.283 0.855 c -1.812 -0.046 -5.04 0.358 -7.173 0.899 c -3.66 0.928 -4.915 0.94 -22.487 
        0.227 c -10.236 -0.415 -20.642 -0.913 -23.126 -1.105 c -6.472 -0.5 -14.427 -1.28 -15.519 -1.518 c -0.514 -0.113 
        -6.736 -0.517 -13.826 -0.897 c -10.138 -0.544 -14.43 -0.553 -20.093 -0.044 c -3.961 0.357 -11.24 0.69 -16.176 
        0.743 c -4.935 0.051 -9.849 0.178 -10.918 0.28 c -3.693 0.355 -16.357 0.876 -23.789 0.978 c -4.1 0.057 -11.53 
        0.225 -16.51 0.374 c -4.98 0.15 -15.043 0.266 -22.362 0.258 c -7.318 -0.007 -14.026 0.048 -14.906 0.122 s -6.895 
        0.153 -13.366 0.176 c -6.47 0.023 -12.46 0.108 -13.311 0.19 c -1.636 0.156 -5.666 0.33 -19.928 0.86 c -11.194 
        0.416 -19.6 0.97 -26.541 1.747 c -3.018 0.338 -6.402 0.591 -7.52 0.563 c -1.118 -0.029 -2.732 0.155 -3.587 0.408 
        s -3.068 0.547 -4.918 0.652 s -5.694 0.606 -8.544 1.114 c -2.85 0.507 -6.622 1.014 -8.381 1.125 c -1.76 0.111 
        -5.0 0.39 -7.201 0.618 c -2.202 0.228 -5.442 0.499 -7.201 0.6 c -1.76 0.103 -5.804 0.49 -8.987 0.86 c -3.184 
        0.369 -7.745 0.764 -10.136 0.876 c -2.39 0.113 -5.723 0.35 -7.405 0.527 c -1.683 0.176 -5.997 0.294 -9.588 0.262 
        c -3.59 -0.033 -8.33 0.113 -10.53 0.324 c -4.345 0.417 -13.591 0.684 -20.774 0.599 c -2.488 -0.03 -5.605 0.12 
        -6.928 0.333 s -10.427 0.31 -20.232 0.217 c -9.805 -0.094 -18.343 -0.079 -18.975 0.035 c -0.632 0.113 -5.785 
        0.25 -11.451 0.303 c -5.667 0.053 -11.502 0.142 -12.968 0.197 c -1.465 0.055 -6.856 0.14 -11.98 0.188 c -5.125 
        0.048 -11.356 0.192 -13.848 0.32 c -2.491 0.127 -4.767 0.16 -5.058 0.075 c -0.29 -0.086 -4.006 0.015 -8.256 
        0.223 s -10.124 0.45 -13.054 0.536 c -2.93 0.087 -6.167 0.234 -7.194 0.328 s -5.102 0.242 -9.055 0.329 s -7.31 
        0.23 -7.46 0.317 s -3.268 0.237 -6.93 0.333 c -3.662 0.095 -7.139 0.257 -7.727 0.36 c -1.077 0.188 -38.773 
        -0.082 -55.08 -0.394 c -4.828 -0.092 -12.843 -0.445 -17.81 -0.784 z m -118.95 -495.76566 c 0.265 -0.01 0.053 
        -0.519 -0.472 -1.13 c -0.817 -0.95 -1.49 -1.101 -4.67 -1.05 c -2.045 0.033 -3.808 0.313 -3.919 0.623 c -0.291 
        0.811 3.375 1.81 6.18 1.685 c 1.32 -0.06 2.616 -0.117 2.88 -0.128 z m 2.290001 -455.89966 c 0.004 -0.13 -0.233 
        -0.24 -0.525 -0.248 c -0.293 -0.007 -0.539 0.24 -0.546 0.55 c -0.008 0.31 0.228 0.42 0.525 0.248 c 0.298 -0.174 
        0.543 -0.421 0.547 -0.55 z m -37.723 -443.72665 c 0.003 -0.116 -0.363 -0.362 -0.812 -0.548 c -0.469 -0.193 
        -0.685 -0.11 -0.506 0.197 c 0.3 0.513 1.307 0.781 1.318 0.35 z m -4.650999 -443.97067 c -0.512 -0.535 -0.575 
        -0.476 -0.305 0.29 c 0.186 0.53 0.476 0.832 0.644 0.673 c 0.168 -0.16 0.015 -0.593 -0.34 -0.963 z m -6.581998 
        -433.44165 c -0.512 -0.535 -0.575 -0.475 -0.305 0.29 c 0.186 0.53 0.476 0.833 0.644 0.673 s 0.015 -0.593 -0.34 
        -0.963 z m -14.978001 -430.31967 c -0.173 -0.297 -0.42 -0.543 -0.55 -0.546 c -0.129 -0.003 -0.24 0.233 -0.248 
        0.526 c -0.007 0.292 0.24 0.538 0.55 0.546 s 0.422 -0.229 0.248 -0.526 z m 10.757001 -451.99265 c -0.38 -0.164 
        -0.84 -0.156 -1.02 0.016 c -0.182 0.172 0.13 0.306 0.69 0.297 c 0.62 -0.01 0.75 -0.132 0.33 -0.313 z m 
        -11.063999 -428.56265 c -0.797 -0.692 -2.058 -2.797 -2.043 -3.409 c 0.005 -0.186 0.366 -0.026 0.803 0.356 c 
        1.034 0.903 1.661 0.298 0.81 -0.783 c -0.748 -0.95 -2.128 -0.247 -2.162 1.1 c -0.01 0.42 -0.206 0.642 -0.434 
        0.493 c -0.228 -0.15 -0.462 0.19 -0.519 0.754 c -0.069 0.687 0.237 1.034 0.928 1.051 c 0.567 0.015 1.024 0.266 
        1.017 0.558 c -0.007 0.293 0.525 0.538 1.184 0.546 c 1.027 0.011 1.086 -0.083 0.416 -0.666 z m -14.163 
        -428.38565 c 0.003 -0.129 0.25 -0.376 0.546 -0.55 s 0.534 -0.061 0.526 0.249 s -0.253 0.557 -0.546 0.55 c -0.292 
        -0.008 -0.53 -0.12 -0.526 -0.249 z m -1.3099995 -437.99567 c 0.049 -0.657 -0.035 -0.898 -0.185 -0.534 c -0.151 
        0.364 -0.487 0.523 -0.747 0.353 s -0.34 0.066 -0.178 0.524 c 0.431 1.214 1.006 1.036 1.11 -0.343 z m -13.726 
        -427.67065 c 0.596 -0.912 -0.05 -1.125 -0.803 -0.264 c -0.432 0.495 -0.48 0.799 -0.128 0.808 c 0.311 0.008 0.73 
        -0.237 0.931 -0.544 z m 6.7300005 -444.98666 c 0.004 -0.114 -0.35 -0.355 -0.784 -0.535 s -0.796 -0.095 -0.803 
        0.189 c -0.007 0.283 0.346 0.524 0.785 0.535 c 0.438 0.012 0.8 -0.073 0.803 -0.188 z m -100.78 -287.62866 c 
        0.007 -0.275 0.256 -0.642 0.553 -0.816 c 0.297 -0.173 0.53 0.058 0.519 0.514 c -0.012 0.456 -0.26 0.823 -0.553 
        0.816 s -0.526 -0.239 -0.52 -0.514 z m 11.8 -470.35266 c 0.317 -0.302 0.887 -0.435 1.268 -0.298 c 0.395 0.143 
        0.148 0.378 -0.577 0.548 c -0.89 0.209 -1.096 0.134 -0.691 -0.25 z m -3.4329996 -426.88464 c -0.546 -0.373 
        -0.582 -0.553 -0.117 -0.594 c 1.17 -0.1 1.454 -0.178 2.106 -0.57 a 0.73 0.73 0.0 0 1 1.008 0.25 c 0.23 0.394 
        0.142 0.484 -0.236 0.237 c -0.358 -0.234 -0.613 -0.058 -0.625 0.434 c -0.024 0.935 -0.965 1.043 -2.136 0.243 z m 
        -13.708 -428.43365 c 0.413 -0.392 0.802 -0.412 1.139 -0.057 s 0.123 0.559 -0.627 0.596 c -0.858 0.043 -0.984 
        -0.09 -0.512 -0.54 z m 2.585001 -434.96866 c 0.011 -0.456 0.257 -0.675 0.545 -0.487 s 0.517 0.567 0.51 0.843 c 
        -0.007 0.275 -0.252 0.494 -0.544 0.487 c -0.293 -0.007 -0.523 -0.387 -0.511 -0.843 z m -10.181998 -436.04166 c 
        0.91 -1.645 1.002 -1.692 0.875 -0.44 c -0.061 0.61 -0.429 1.221 -0.817 1.359 c -0.562 0.2 -0.574 0.014 -0.058 
        -0.92 z m -7.3359995 -446.60065 c -0.445 -0.291 -0.188 -0.535 0.795 -0.756 c 1.782 -0.399 2.123 -0.148 0.832 
        0.614 c -0.534 0.314 -1.266 0.378 -1.627 0.142 z m 0.6640005 -462.87466 c 0.181 -0.173 0.64 -0.18 1.02 -0.016 c 
        0.42 0.18 0.291 0.303 -0.329 0.313 c -0.561 0.009 -0.872 -0.125 -0.691 -0.297 z m -9.349999 -429.25366 c 0.181 
        -0.173 0.64 -0.18 1.02 -0.016 c 0.42 0.18 0.291 0.303 -0.329 0.313 c -0.561 0.009 -0.872 -0.125 -0.691 -0.297 z 
        m -1.3539991 -433.74066 c -0.009 -0.562 0.125 -0.873 0.297 -0.691 c 0.173 0.18 0.18 0.64 0.016 1.02 c -0.18 0.42 
        -0.303 0.29 -0.313 -0.33 z m 8.329001 -456.25964 c -0.472 -0.322 -0.532 -0.533 -0.151 -0.528 c 0.348 0.005 0.775 
        0.25 0.949 0.548 c 0.39 0.67 0.207 0.666 -0.798 -0.02 z" transform="matrix(0.54545456 0.0 0.0 0.54545456 -0.0 99.07855)"/>
</svg>