<svg height="736.71185" width="1100" xmlns="http://www.w3.org/2000/svg"><path d="m243.70049 485.47088c-4.96809-.33871-13.33859-.83882-18.60111-1.11134-18.73557-.97022-30.31963-1.67685-31.88661-1.94508-.87443-.14968-4.33959-.45983-7.70035-.6892s-6.94432-.59297-7.96346-.80798-3.40701-.50309-5.30638-.64018c-6.26471-.45215-12.02093-1.32376-16.5804-2.51062-1.76715-.45999-3.45153-.69721-3.74304-.52715-.29152.17007-.36723.0602-.16825-.24415.2449-.37458-1.52414-.62214-5.47551-.76625-3.21051-.11708-6.19153-.35928-6.62449-.5382s-.92235-1.16285-1.08752-2.1865c-.34153-2.11661-.90086-2.44243-5.97973-3.48331-1.89298-.38795-4.86616-1.20591-6.60707-1.81769-1.7409-.61178-3.79404-1.24955-4.56254-1.41728-2.19418-.47889-2.15531-1.65481.12861-3.89137 2.40173-2.3519 4.29518-3.3313 8.14868-4.215 2.4986-.57297 5.91767-2.94855 5.94783-4.13255.0101-.39771-2.27988-1.17059-5.54119-1.87017-.87347-.18736-3.73717-.52798-6.36378-.75694-2.62662-.22895-6.11966-.80132-7.76234-1.27193-1.82565-.52303-5.49648-.91959-9.44305-1.02012-7.008797-.17854-10.005887-1.00921-10.448247-2.89583-.14985-.63908-1.45795-1.65032-3.32579-2.57105-1.69333-.83471-2.95083-1.71336-2.79443-1.95257.15639-.23922-.0301-.33411-.41434-.21086-1.7259.5535-4.29562-.66712-5.20549-2.4726-.99167-1.96781-.52465-3.7824.96371-3.74448.42855.0109.78564-.15963.79355-.37899.008-.21936 1.62995-.42672 3.60456-.4608 1.9746-.034 3.67583-.29015 3.78052-.56904s.635-.49574 1.17847-.48189c.54347.0138 1.14216-.21043 1.33042-.49838.18827-.28795.58166-.51745.87422-.51.29256.007.41007.19994.26113.42775-.14895.22781.43076.42273 1.28822.43317.92075.0112 1.56631-.26656 1.5768-.67848.01-.3836.253357-.54342.541317-.35515.28795.18826.52935.11441.53644-.16411.0209-.82061-1.363707-1.15559-3.812367-.92232-1.25994.12001-3.361-.0814-4.66903-.44805-1.30803-.36644-2.73551-.74503-3.17218-.8413-.43668-.0963-1.21183-.36571-1.72258-.59874s-1.40672-.31159-1.99103-.17459c-1.35885.31862-1.80411-.41702-.75341-1.24476.44482-.35043.80711-.42822.80509-.17287-.002.25535.17828.2294.40067-.0577.684-.88295 2.8333-1.8464 2.81845-1.26338-.008.29504.23983.54289.54965.55078.30982.008.45122-.1778.31421-.41266-.35341-.60581 3.91755-.59255 4.98726.0155.57135.32477 1.11002.29455 1.50904-.0847.71653-.68093 2.86064-.90666 2.4355-.2564-.49542.75775 1.21546.50628 1.902217-.2796.48899-.55956.99423-.61501 1.96827-.216 1.68366.6897 2.25579.68845 1.25486-.002-.58797-.40602-.31829-.51924 1.07605-.45179 1.02335.0495 3.66279-.13521 5.86542-.41047 2.20261-.27527 4.64569-.51632 5.42903-.53568 2.32912-.0575 1.70483-1.85073-1.40315-4.03034-1.77567-1.24527-2.61538-2.17213-2.41255-2.66294.19813-.47943.5256-.57304.90168-.25773.32481.27231 1.07422.31435 1.66533.0934.59113-.22094 1.96731-.3958 3.05818-.38859 1.53524.0102 2.20023-.3001 2.94298-1.37305 1.2065-1.74286 1.38042-2.73004.71434-4.05465-.2892-.5751-.3095-.90421-.0451-.73136.26438.17285.8198-.56254 1.23428-1.63421.41447-1.07166 1.02355-2.11756 1.35349-2.32424.32994-.20665-.35738-.40747-1.52738-.44624-1.57125-.052-1.91529-.19995-1.31626-.5658.61505-.37562.39161-.50795-.92475-.54768-.95467-.0286-2.14588-.2796-2.64714-.55734-.50127-.27773-3.1103-1.44616-5.79786-2.59649-5.38981-2.30695-8.52469-2.88132-19.983647-3.66137-8.78144-.59778-9.76795-.73152-11.1442-1.51073-1.40099-.79322-8.64256-2.07657-13.24192-2.34673-2.41083-.1416-4.55409-.62728-6.08908-1.3798-1.30282-.63871-3.56008-1.35296-5.01613-1.58723-2.89559-.46589-6.60223-1.88453-6.58603-2.52067.006-.22074 1.39809-.81795 3.09436-1.32712 2.60665-.78244 4.81368-.88769 14.25552-.67976 7.5422.16609 11.83529.0425 13.21499-.38043 1.99241-.61074 3.90091-.4697 8.76523.64776 1.25384.28804 4.82001.63208 7.9248.76453 3.104797.13245 6.100757.49983 6.657707.8164.59549.3385 1.81543.42943 2.96161.22078 1.07195-.19514 2.15914-.29848 2.41598-.22966.94887.25428 17.14568.50072 18.95032.28833 3.05941-.36005 6.8987-.58019 12.18938-.69893 2.74383-.0616 5.25454-.3645 5.57936-.67319.57726-.54857-.39713-.85286-2.14783-.67071-.36691.0382-.66009-.20607-.65151-.54275.009-.33669-.32929-.48979-.75082-.34023-.42153.14955-1.05292-.0918-1.4031-.53626-.51127-.64899-.72637-.67445-1.09201-.12925-.37111.55335-.45354.54928-.44562-.022.006-.44304-.36154-.59345-.99925-.40879-.67185.19454-1.12105-.0238-1.34448-.65356-.18455-.52015-.076-1.02495.24118-1.12178.82016-.25037 2.19135-1.62178 2.20624-2.2066.0208-.8156-2.05945-2.73852-2.61313-2.41553-.28292.16506-.36954-.0504-.19248-.47891.24471-.59217.0333-.71133-.88162-.49682-.95581.22411-1.13057.10561-.84903-.57569.52454-1.26931-.59256-1.7097-1.50539-.59345-.50026.61175-.68357.67526-.50107.1736.32162-.88401-2.12983-2.37214-3.03643-1.84325-.31237.18223-.37801.0598-.1527-.28482.21735-.33242.14169-.61088-.16813-.61877-.30983-.008-.57247.3447-.58365.78354-.0287 1.12616-1.08122.97178-1.09785-.16104-.0116-.79119-.0823-.77291-.46874.12113-.25029.57912-.38524 1.18465-.29988 1.34561.0854.16096-.30784.3157-.87377.34386-1.24442.0619-1.30643-.3602-.16868-1.14848.66108-.45802.19215-.56595-2.15788-.49661-1.77367.0523-2.8712-.11227-2.68168-.40211.17805-.27234-.15607-.37889-.75086-.23942-.62314.14611-1.065-.0105-1.05575-.37408.009-.34395-.26852-.45941-.61618-.2566-.44409.25908-.50311.069-.19843-.63898.23852-.55425.49669-1.33245.5737-1.72932.23959-1.2348 1.60286-1.56223 3.25518-.78182.8678.40987 1.27812.75704.91181.77148-1.30713.0516-.66664 1.0908.69362 1.12545 1.00066.0255 1.30884-.18419 1.10697-.75317-.15386-.43366-.0354-.93101.26319-1.10522.34688-.20237.30133-.63006-.12615-1.18445-.5656-.73351-.53945-.81546.16898-.52983.46095.18584 1.18153.10669 1.6013-.17589.6028-.4058.56456-.45535-.18192-.23571-.79677.23444-.8837.0521-.55379-1.1615.21524-.79178.58812-1.56291.82862-1.71363.78278-.49055-.0386-2.59348-.89439-2.28985-.55504.19692-.73349-.0184-.59462-.71732.14517-.73055-.088-.97441-.8684-.90828-.58676.0497-.76275-.0351-.39108-.18849s.55573-.48463.40904-.73608.2231-.78198.82174-1.17895c.59864-.39698.93441-.88385.74616-1.08195-.18827-.1981.11659-.35216.67744-.34236.83709.0146.8816-.0745.24851-.49784-.50608-.33838-.9087-.30538-1.17111.096-.21994.33641-.54811.45568-.72927.26505-.33212-.34949.71216-2.579 1.43061-3.05428.58726-.3885 1.32134-2.8099.75099-2.47716-.26953.15723-.75805-.16864-1.08561-.72415-.53001-.89883-.43674-.99521.84723-.87546.90936.0848 1.39991-.11252 1.32677-.53373-.0638-.36756.0627-.63537.28129-.59514 1.09279.20119 1.73235-.0972 1.75068-.81684.0112-.43883.27382-.79143.58365-.78353.30982.008.43359-.20803.27504-.47981-.15856-.27178.0155-.60772.3868-.74653.40726-.15225.30622-.27844-.25472-.31808-.51139-.0361-.92512-.24938-.9194-.47387.006-.22449-.82728-.39012-1.85111-.36808-1.02383.022-1.72334-.17126-1.55445-.42957.16888-.25831-.19993-.48257-.81958-.49836-.61964-.0158-.97259-.2643-.78434-.55225.18827-.28795.0632-.53066-.27793-.53934-.35652-.009-.46831-.3834-.26293-.88039.29874-.72292.22175-.75781-.4699-.21293-.67852.53453-.82352.5077-.80678-.14932.0112-.44054.50232-.91398 1.09133-1.05208.64463-.15115 1.08234-.69846 1.09957-1.37489.0241-.9464-.20351-1.08078-1.44206-.85137-1.20684.22354-1.30422.17218-.5428-.28629.86211-.51911.84932-.65381-.18064-1.90115-.60967-.73833-1.46426-1.3515-1.89911-1.36257-1.60066-.0408-.15461-.56418 1.99769-.72307 1.296-.0957 2.08797.0398 1.90139.32514-.17587.269-.0804.4952.21215.50265.29256.007.65921-.18113.81477-.41907.15557-.23793 1.07122-.36782 2.03477-.28863.96356.0792 2.03537-.0665 2.3818-.32375.38698-.28738.75764-.24872.96122.10026.22434.38454.65599.40474 1.33651.0625.55284-.278 1.56118-.47096 2.24077-.4288 1.88816.11714 8.42061-.29913 8.87756-.5657.35596-.20766 6.18107-.79971 7.9639-.80943.93374-.005.89582-2.50695-.0492-3.24548-.4299-.33598-.81794-1.27588-.86229-2.08868-.0501-.91798-.33073-1.38908-.74082-1.24357-.38656.13714-.53802-.0614-.36543-.47903.19257-.46597-.25566-.84892-1.29286-1.10458-1.74407-.42989-2.96258-1.62239-2.45347-2.40108.18344-.28057-.14211-.38805-.7463-.24638-.76342.179-1.06501-.0104-1.0485-.65845.0127-.50035-.45238-1.04711-1.03359-1.21503-1.18018-.34096-1.3541-.99579-.41065-1.54618.39115-.22819.47324-.13364.22011.25352-.22201.33957-.20547.58815.0368.55242 1.13967-.16821 1.76518.16757 1.74557.93706-.0279 1.0966 1.26004.70363 1.51724-.46291.10868-.49293-.001-.86669-.24498-.83059-1.47311.21857-2.29829-.21812-2.27321-1.20296.0153-.60238.2635-.9412.55145-.75294.28796.18826.5361-.15056.55145-.75294.0153-.60239.36134-1.08675.76887-1.07637.40755.0104.893-.34897 1.07879-.79857.18579-.44959.11586-.68796-.15541-.52971s-.58896-.0171-.70599-.38955c-.11703-.37249-.16053-.25677-.0967.25716.0639.51394-.10084.9289-.36601.92215-.26518-.007-.47487-.2974-.46599-.64587.009-.34848-.3343-.17909-.76262.37641-.57165.74137-.61833 1.11487-.17555 1.40437.34626.22638.13494.34708-.49615.28334-.97599-.0986-1.6288-1.50815-.68736-1.48416.20724.005.5387-.70485.73659-1.57805.28579-1.26103.63611-1.58061 1.70292-1.55343.7387.0188 1.3492-.20515 1.35665-.49771.007-.29256.49228-.51973 1.0774-.50482 1.12665.0287 1.41049.81106.48924 1.34849-.98351.57376-.0773 1.19781 1.59488 1.09832 2.17713-.12952 2.71045-.7141.75784-.83067-1.52094-.0908-1.5249-.099-.21065-.43719l1.33946-.34464-1.18025-.68151c-1.35987-.78523-1.53943-1.71774-.32482-1.68681.45611.0116.67525.25673.48698.54468-.18826.28796-.0888.53001.22102.5379.30982.008.57551-.46438.59042-1.0495.0165-.64446.38171-1.05481.92665-1.04093.7826.02.76782-.0791-.11367-.76171-.80917-.62662-1.07028-.64795-1.29663-.10593-.17214.41221-.67097.52899-1.2704.29741-.92753-.35832-.93132-.43417-.063-1.25938.50821-.48295 1.26596-.86938 1.6839-.85874.68655.0175 1.01034-.62035.86692-1.70779-.0291-.2203.32035-.39104.77645-.37942.4561.0116.69724-.20521.53586-.48184-.38194-.6547.6435-1.2491 1.35377-.78473.37529.24536.34585.59136-.093 1.09359-.46157.52818-.4742.73894-.045.74987.62378.0159.80914-.62364.67192-2.31833-.10725-1.3246.91474-1.88127 3.35786-1.82902 1.17502.0251 1.9464-.19959 1.87687-.54677-.0755-.3768 1.03342-.56795 3.07404-.52991 1.75565.0327 3.49789-.16786 3.87163-.44577.37374-.27789 1.37261-.3482 2.2197-.15623 1.09644.24849 1.74671.0925 2.25707-.54157.3943-.48984.49943-.71518.23363-.50076-.26579.21443-1.13316-.64599-1.92747-1.91204-.79432-1.26604-1.45075-2.08531-1.45876-1.82057-.008.26473-.48223.0358-1.05386-.50855-.57162-.54442-1.02537-1.25179-1.00831-1.57192.017-.32013.26433-.15694.54948.36263s.9135.95474 1.39631.96704c.6488.0165.72611-.13731.2963-.58959-.31985-.33656-.43833-.95847-.26331-1.382.26023-.62973.39689-.63868.74991-.0491.31776.53071.43652.44017.45-.34311.023-1.33056-1.18532-3.07437-1.7774-2.56528-.24288.20881-.25927.081-.0364-.28402.22284-.36503.62447-.52031.89253-.34505.26805.17525.49347.0793.50092-.21329.007-.29256-.21176-.67923-.48714-.85926-.67272-.43983-.005-1.97906 1.21991-2.81413.54596-.37206.84533-.92901.66525-1.23769-.21312-.36534.11017-.4164.9263-.14629 1.02412.33894 1.13519.28398.60656-.30012-.78636-.86888-.81027-2.47729-.0403-2.71234.52881-.16142.67374-1.07776.50886-3.21712-.0429-.55638-.51939-.94799-1.1799-.96968-.63677-.021-.86102-.19638-.52729-.41262.83796-.54297 1.37954-2.13545.84509-2.48488-.25078-.16397-.57098-.00018-.71156.36403-.14057.36418-.3918.53197-.55828.37288-.16648-.1591-.0822-.62646.18722-1.03861.41326-.63209.65751-.58972 1.56097.27075 1.04599.99621 1.07264.99639 1.13886.008.0376-.56096.17986-.71277.31916-.3405.13824.36945.49639.67797.79586.68561.29948.008.41691-.3458.26095-.78538s-.11358-.75911.0942-.71004c.20778.0491 1.06324-.17327 1.90104-.49405.8378-.32077 1.73909-.44212 2.00288-.26965.2638.17249.48644.046.49477-.28111.008-.32709.23447-.45132.50253-.27607.26805.17526.63412.0942.81347-.18014.17936-.27432.74022-.4862 1.24638-.47084 1.46902.0446 2.38477-.22521 4.83721-1.4251 1.26646-.61962 2.63439-1.11814 3.03984-1.10782.40544.0103.84178-.27026.96961-.62354.24859-.6869 5.21815-.89573 5.2009-.21854-.005.21583.65292.22604 1.46316.0226 1.59673-.40079 4.97844-.23145 7.426.37184 1.26977.31299 1.66096.1569 2.26349-.90316.40063-.70483.59221-1.51504.42571-1.80044-.42927-.73585-4.01841-1.32972-9.88109-1.63495-2.77742-.1446-5.5714-.56437-6.20884-.93282s-1.349-.64315-1.58125-.61044c-.23226.0327-1.29127.009-2.35335-.0528-1.45357-.0844-1.99317-.37704-2.18218-1.18315-.20397-.86992.0142-1.06736 1.16232-1.05186 1.35006.0182 1.36857-.0167.41284-.77891-.89483-.71363-.48571-.77174 3.87053-.54981 2.67912.13649 4.86847.3948 4.86524.57402-.003.17923.65434.26588 1.46127.19257 3.61247-.32819 9.12057-.64249 11.15622-.63657 1.22339.004 2.11227-.18564 1.9753-.42042-.13696-.23478.18489-.45129.71524-.48112 2.09704-.11797 2.6006-.20288 3.529-.59509.53049-.22411 1.44574-1.29422 2.03391-2.37801 1.08563-2.00046 2.82548-3.13496 3.15456-2.05697.12583.41219.42162.39916.98329-.0433.50924-.40118.92966-.43778 1.14839-.1.36409.56229 8.94663.78561 9.51284.24766.18171-.17269.60695-.0723.94498.2231.65233.57005 3.8645.56298 4.84784-.0107.32212-.18791 1.40603-.0925 2.40869.21202 1.00267.30454 6.23735.78751 11.63264 1.07327 5.39528.28577 12.91835.71733 16.71792.95902 20.47834 1.30266 26.73231 1.59875 39.47339 1.86884 10.00919.21217 13.96022.46519 13.94931.8933-.011.43199.18162.44221.6961.0369.71841-.56596 3.92435-.63451 13.14913-.28114 2.7784.10643 5.2915.1796 5.58469.16259.29317-.017 3.1719-.19219 6.39714-.3893 3.22525-.1971 6.25969-.22446 6.74319-.0608.48351.16368 1.0099.0975 1.16976-.14699.15987-.24451 2.28099-.44658 4.71359-.44903 2.43261-.002 5.79788-.21128 7.47839-.46409 1.68051-.25279 6.11766-.4887 9.86033-.52425 3.74269-.0357 8.48275-.11287 10.53349-.17166 2.05073-.0588 4.1705.13536 4.7106.43144.54009.29608.85472.32017.69915.0535-.16021-.27464 1.94984-.40815 4.86711-.30796 2.83247.0973 5.9947-.0878 7.02718-.4113 1.41739-.44409 1.96929-.43502 2.25305.0371.25701.42756.38309.44011.39887.0396.014-.36046 1.50667-.5937 3.88256-.60682 5.27895-.0291 21.34673.32499 24.60365.54223 1.46125.0975 4.81491.0831 7.45258-.0318 6.36348-.27739 16.239-.18765 16.23041.1475-.0106.41382 2.54601.29032 6.81777-.32933 2.14294-.31084 4.53987-.37848 5.32652-.15027 1.84229.53442 5.41448.7578 5.42462.33921.004-.17744.66605-.30519 1.47057-.2839 14.87948.39383 42.96496.111 43.91315-.44216.22866-.13338.4103-.0305.40371.22868-.007.25916.70581.38445 1.5832.27843.87735-.10603 2.0125-.005 2.52251.22488 1.17388.52867 3.29717.7441 3.04321.30877-.10537-.18065 3.92491-.17347 8.95621.016 5.03129.18944 9.14672.38543 9.14545.43555 0 .0501 1.49263.17655 3.31983.28097 1.8271.10442 3.32588.0356 3.33057-.15308.005-.18861.84272-.13232 1.8623.12509 1.01968.25742 1.96211.30245 2.09443.10009.13228-.20238 2.40899-.29909 5.05923-.21491 2.873.0912 4.82739-.0617 4.84033-.37869.0132-.31352.17598-.29012.39771.057.46611.72969 4.48569.79465 5.03818.0815.26958-.34799.40244-.3446.39868.0102 0 .2927.89273.52701 1.99082.52076 1.09815-.006 2.54561.2103 3.21661.48121.72959.29463 1.61836.29221 2.21142-.006.95581-.48061 3.18902-.62843 14.67818-.97157 2.92963-.0875 7.72587-.31346 10.65815-.50215 2.93227-.18869 9.52109-.26729 14.64184-.17467 5.12076.0927 10.27247.013 11.4483-.17684 1.17583-.1899 7.64443-.24941 14.37465-.13224 15.8065.27516 27.70186.14764 32.43999-.34777 2.0753-.21698 6.53506-.68359 9.9107-1.03691 3.37553-.35331 9.01684-.84489 12.53613-1.0924 3.51929-.24752 7.47891-.54245 8.79912-.65542 4.32524-.37009 8.72588-.15875 12.28321.58991 2.24322.47209 9.06465.8731 19.02632 1.11845 8.54116.21039 15.69458.48632 15.89649.61322.2019.12692 9.21967.61254 20.03945 1.07917 10.81977.46664 21.58442 1.00986 23.92138 1.20717 13.1212 1.10781 23.08267 1.56388 44.92432 2.05685 3.07212.0693 6.42153.22257 7.44312.34052 2.20952.2551 12.43715.97804 22.04946 1.55858 20.77466 1.25468 28.52583 1.65881 42.5251 2.21719 8.48105.33827 16.25459.76597 17.27451.95044s3.76714.47185 6.10483.63862c4.32627.30862 9.26553 1.01853 9.9023 1.42322.19355.12304 1.98315.39011 3.97685.59348 1.99375.20338 5.05537.63397 6.80361.95685 1.74825.3229 3.89429.70372 4.76885.84628.87461.14255 3.53218.81315 5.90571 1.49022 2.37354.67706 4.81421 1.24374 5.42369 1.25927.60957.0155 1.10312.2277 1.09687.47149-.006.2438.28789.45359.65347.46621 3.59189.12391 12.17593 1.16112 13.52236 1.63388.93809.32939 2.19346 1.32232 2.78975 2.20651 1.17744 1.74607 4.36494 3.53509 7.30464 4.09998 3.6781.70672 10.045 1.46184 11.3796 1.34964.7499-.063 1.3569.14357 1.3489.45913-.01.31556.1512.41609.354.22342.2028-.19269.8557.13114 1.4509.71959.5953.58847 2.6781 1.95411 4.6285 3.03477 2.8414 1.57434 4.2952 2.02644 7.3151 2.27481 3.9885.32806 4.6934.8019 4.2465 2.85446-.2847 1.30813-2.4287 2.33155-4.76 2.27216-.6705-.0171-1.3732.20454-1.5614.4925-.1882.28795-1.1542.50287-2.1464.47759-2.8013-.0714-7.205.90037-7.2073 1.59038 0 1.13471 4.019 2.6236 7.9788 2.95311 2.1451.1785 7.1279.54822 11.073.82161 7.968.55217 8.8022.71819 9.1968 1.83017.5817 1.63949-6.8645 6.97553-12.9321 9.26733-1.9577.73946-2.9514 1.49574-3.6347 2.76616-1.1726 2.18026-.6635 3.24443 2.4929 5.21152 1.2248.76325 2.2175 1.75378 2.2061 2.20119-.011.4474.3292 1.18165.7569 1.63166 1.2127 1.27613.8818 2.55661-.9199 3.55991-.908.50564-2.7021 1.86312-3.9869 3.01659-1.9558 1.75589-2.7613 2.11828-4.9495 2.22653-1.9253.0952-2.8555.43306-3.5327 1.28295-.5056.63452-.8089 1.34282-.6741 1.574.135.23119.0001.41409-.2994.40646-.2995-.008-.8385.51756-1.1978 1.16709-.3591.64954-.4682 1.01744-.2422.81758.5624-.49748 1.9924 1.08452 1.5676 1.73428-.1977.30244.065.41896.6244.27735.5309-.13432 0 .20776-1.1894.76025-1.185.55245-2.9172.99132-3.8491.97526-.932-.0161-2.3144.18859-3.0721.45479-1.0131.35594-1.3775.31144-1.3773-.16814.0001-.35869-.2489-.2484-.5537.24508-1.0467 1.695-.086 3.57889 2.5461 4.99868 1.3645.73569 2.8387 1.91528 3.2761 2.62131.4373.70603 1.7304 1.59008 2.8735 1.96457 4.2603 1.39558 4.8559 4.16965 1.1042 5.14294-2.3318.60493-3.4802 2.29638-2.8252 4.16094.3409.97018.3222 1.41072-.06 1.401-.9826-.025-1.9554 1.27664-1.9323 2.58575.023 1.29463-.019 1.31557-4.5265 2.23727-.7357.15045-2.0717.8824-2.9689 1.62654-.8973.74414-2.2983 1.67887-3.1135 2.07719-.8153.39831-1.491 1.06869-1.5017 1.48973-.025.98777-1.9571 1.96161-4.2575 2.14615-2.5151.20175-3.554.82943-3.6957 2.23293-.1181 1.16989 1.9248 3.72258 3.001 3.74999.6577.0168 3.6003 3.15102 3.5834 3.8168-.023.91024-1.9563 1.48638-5.6755 1.69158-2.02809.11189-4.89084.42747-6.36154.7013-2.4354.45342-11.12671 1.70592-13.10776 1.88895-.82857.0765-1.23848 1.96597-.43101 1.98654.24014.006.18584.45228-.12061.99149-.30649.53919-.39443 1.15172-.19536 1.36116.6669.7018.25347 7.45366-.50224 8.20242-.39453.39087-1.82012.75685-3.16802.81329-2.17529.0911-3.63096.88993-3.15444 1.73107.0922.1627-.17413.59595-.5919.9628-.41767.36683-.75498.48997-.74951.27365.005-.21633-.27871-.11895-.63154.21639-.46831.44502-.82769.44712-1.33037.008-.50298-.43949-1.12417-.43447-2.30191.0186-2.71499 1.04442-1.87241 2.66803 1.77534 3.42099 4.07993.84217 4.98726 1.2251 4.34624 1.83427-.17397.16535-3.96064.28491-8.41489.26569-9.4727-.0409-10.5666.36557-11.43813 4.24982-.28189 1.25625-1.10225 3.16782-1.82325 4.24791-1.19106 1.7844-2.13339 4.11319-2.22114 5.48881-.0186.29228-.84072.58792-1.82681.65699-1.22983.0862-1.88471.44367-2.08549 1.13849-.16094.5571-.50142.8764-.75664.70954-.25523-.16686-.47027-.06-.47784.23751-.007.29749-1.11254 1.14777-2.45546 1.88951-3.81001 2.10433-4.37779 3.88545-1.60132 5.02282 1.29868.53197 1.35141.9334.41582 3.16189-.68604 1.63394 1.03862 2.73441 6.73901 4.30003 5.51826 1.51561 7.05527 2.51374 5.43892 3.53197-1.00371.63233-8.21123-.17206-19.54663-2.18143-5.13536-.91034-7.30489-.5504-8.49717 1.40976-1.18848 1.95381-2.41431 2.50972-5.95191 2.69919-2.93183.15703-5.69116 1.53776-5.72495 2.86476-.021.81386 2.32188 1.64199 5.03633 1.78037 2.04087.10404 4.43628 1.56694 3.24165 1.9797-.37446.12938-1.04463.58098-1.4893 1.00354-.44463.42257-.80484.62538-.8004.45069.0166-.64339-3.25991 1.29194-3.92392 2.31788-.82725 1.27816-3.62554 2.99759-4.72778 2.905-2.7398-.23015-6.3858.0372-6.39683.46899-.0215.82479 2.72432 3.25717 3.29834 2.92232.28896-.16858.35815-.0508.15391.26176-.2044.31254-.12823.72732.16904.92173.29731.19441.39053.58309.20698.86377-.18345.28067-.0454.87659.30762 1.32429 1.00263 1.27263-.0186 1.75531-4.08721 1.93214-2.04712.089-4.80527.37087-6.1291.62643-1.32393.25557-5.77134.89578-9.8832 1.42269-4.11197.52689-8.82032 1.38058-10.46309 1.89708-1.67905.52791-4.42983.90232-6.28267.85512-1.81274-.0462-5.04057.35831-7.17309.89885-3.66108.92802-4.91475.9407-22.4874.22735-10.23565-.4155-20.64209-.91272-23.12554-1.10491-6.47202-.50086-14.4269-1.27926-15.51885-1.51853-.51455-.11275-6.73637-.51621-13.82651-.89659-10.13779-.54389-14.42915-.55323-20.09312-.0437-3.96118.35634-11.24013.69034-16.17558.74224-4.93535.0519-9.84873.17842-10.91865.28117-3.69258.35462-16.35689.87491-23.78844.9773-4.09995.0565-11.5294.22489-16.50986.3742-4.98052.14931-15.04341.26552-22.36192.25824-7.3185-.007-14.02646.0473-14.90664.12114-.88013.0739-6.89453.15317-13.36543.17612-6.47085.023-12.46108.10834-13.31157.18972-1.63603.15655-5.66606.33056-19.92778.86048-11.19405.41594-19.6002.96918-26.54102 1.74676-3.01811.33812-6.40205.59147-7.51977.563-1.11768-.0285-2.73189.15535-3.58706.4085-.85518.25314-3.06812.5463-4.91763.65148-1.84956.10516-5.69463.6065-8.54468 1.11407-2.85014.50758-6.62143 1.01395-8.38076 1.12529-1.75933.11133-4.99995.38928-7.20132.61768-2.20146.22839-5.44189.49889-7.20097.60113-1.75909.10225-5.80328.48843-8.98707.8582-3.18378.36977-7.74472.76449-10.13544.87716-2.39072.11266-5.72324.34951-7.40557.52634-1.68237.17682-5.99678.29473-9.58755.26202-3.59078-.0327-8.32951.11341-10.5305.32472-4.34499.41714-13.59099.68346-20.77375.59838-2.48761-.0295-5.60521.12072-6.92801.33376-1.32279.21302-10.42707.31031-20.23174.21618-9.80466-.0941-18.34341-.0784-18.97499.0349-.63159.11332-5.78477.24982-11.45152.30333-5.66675.0535-11.50193.14222-12.96707.19711-1.46514.0549-6.85652.13935-11.98084.18767-5.12432.0483-11.35554.19214-13.84715.31959-2.4916.12746-4.76792.16161-5.05848.0759-.29057-.0857-4.0057.0147-8.25586.22298-4.25016.20835-10.12457.44962-13.05425.53616-2.92969.0865-6.16698.23398-7.19399.32766-1.027.0937-5.1017.24178-9.05488.32911-3.95318.0873-7.31011.23008-7.45985.31724-.14974.0872-3.26826.23673-6.93005.33237-3.66179.0956-7.13898.25775-7.72708.36023-1.07708.1877-38.77337-.0819-55.07984-.39394-4.82799-.0924-12.84297-.4451-17.81106-.78381zm-107.95059-68.59955c.26521-.0108.0527-.51934-.47217-1.1299-.81699-.95035-1.48921-1.10153-4.6705-1.05045-2.0439.0328-3.8071.31319-3.91824.62304-.29101.81131 3.37488 1.81051 6.18076 1.68465 1.31887-.0592 2.61493-.11646 2.88015-.12734zm13.29084-28.7336c.003-.12902-.23339-.24067-.52595-.24812-.29256-.007-.53838.23994-.54628.54977-.008.30982.22879.42147.52595.24812.29717-.17336.54299-.42076.54628-.54977zm-26.72389-16.56046c.003-.11498-.36252-.36107-.81212-.54686-.46874-.19371-.68453-.10998-.50586.19629.29951.5134 1.30701.78138 1.31798.35057zm6.34905-16.80364c-.51205-.53481-.5747-.47527-.30535.29018.18638.52969.4763.83248.64424.67288.16795-.1596.0154-.59298-.33889-.96306zm4.418-6.27469c-.51206-.53481-.57472-.47527-.30536.29018.18639.52968.4763.83248.64425.67288.16794-.1596.0154-.59298-.33889-.96306zm-3.97776-3.15301c-.17336-.29715-.42075-.54298-.54976-.54627-.12902-.003-.24067.23339-.24812.52595-.007.29256.23994.53838.54977.54628.30982.008.42147-.22879.24811-.52596zm21.75684-24.82603c-.38007-.16344-.83934-.15624-1.02059.016-.18126.17226.12971.30598.69103.29716.62031-.01.74957-.13256.32956-.31317zm-.0643-1.39548c-.79672-.6925-2.05781-2.79763-2.04223-3.4091.005-.18607.36574-.0262.80222.3552 1.03395.90354 1.66161.298.81069-.78213-.74806-.94955-2.12799-.24772-2.16232 1.09975-.0107.42028-.20616.64209-.43433.49291-.22818-.14918-.46146.19002-.5184.75378-.0693.6867.23671 1.03369.92727 1.05128.56694.0145 1.0247.26563 1.01724.55819-.007.29256.52522.53803 1.18372.54549 1.02735.0117 1.0864-.0828.41614-.66537zm-3.16255-1.21919c.003-.12901.24911-.37641.54627-.54977s.53384-.0617.52595.24812c-.008.30982-.25372.55722-.54628.54977-.29255-.007-.52923-.11911-.52594-.24812zm9.68918-10.82919c.0492-.65743-.0339-.89757-.18473-.53366-.15081.36392-.48698.52256-.74704.35253s-.33975.066-.17709.52444c.43076 1.21409 1.00561 1.03611 1.10886-.34331zm-2.72524-.50403c.5961-.91173-.0509-1.12452-.80288-.26404-.43244.49485-.48057.79902-.12785.80801.31111.008.72994-.23687.93073-.54397zm17.73078-17.81927c.003-.11498-.35021-.35598-.78476-.53556-.43454-.17958-.79599-.0947-.80321.18872-.007.28338.34592.52438.78476.53557.43884.0112.80028-.0738.80321-.18873zm-89.782077 139.53719c.007-.27529.25588-.64237.55305-.81572.29716-.17337.53079.058.51917.51408-.0116.4561-.26049.82317-.55305.81572-.29256-.007-.52618-.23878-.51917-.51408zm22.799887-43.18637c.31697-.30123.88763-.43502 1.26812-.29733.395.14294.14774.37791-.57632.54769-.89067.20883-1.09658.13431-.6918-.25036zm7.56782.28244c-.54616-.37301-.58202-.55349-.11795-.59366 1.16972-.10121 1.45464-.17831 2.10682-.57011.35108-.21092.8044-.0988 1.00737.24911.23048.39508.1421.48422-.2354.23741-.35817-.23416-.61305-.0573-.62557.43409-.0238.93563-.96451 1.04275-2.13527.24316zm-2.70842-1.26708c.41282-.39233.80164-.41167 1.13899-.0567.33735.35498.12339.55833-.62679.59565-.85784.0427-.98427-.0904-.5122-.53897zm13.58482-7.80199c.0116-.4561.25672-.67525.54468-.48698.28795.18826.51781.56754.51079.84283-.007.27529-.25211.49443-.54466.48698-.29257-.007-.52242-.38673-.51081-.84283zm.81814-8.87524c.9096-1.64506 1.00163-1.69122.87517-.43897-.0616.60938-.42909 1.22051-.81677 1.35805-.56272.19965-.5745.0143-.0584-.91908zm3.66374-19.43404c-.44501-.29095-.1882-.53489.79501-.7552 1.78219-.39936 2.12301-.14805.83178.61333-.53319.3144-1.26525.37825-1.62679.14187zm11.66427-35.70804c.18126-.17226.64052-.17946 1.0206-.016.42.18061.29075.30344-.32956.31317-.56132.009-.87229-.1249-.69104-.29715zm1.64998-2.08706c.18125-.17225.64052-.17945 1.02059-.016.42.18061.29075.30345-.32956.31318-.56132.009-.87229-.12491-.69103-.29717zm9.64617-6.57397c-.009-.56132.12491-.87229.29716-.69104.17225.18126.17946.64053.016 1.0206-.18061.42-.30345.29075-.31318-.32956zm19.32849-29.09294c-.47152-.32204-.5318-.53278-.15103-.52797.34854.005.77557.25113.94892.54829.39132.67079.20718.66611-.79789-.0203z"/></svg>